<svg width="27" height="26" viewBox="0 0 27 26" fill="none" xmlns="http://www.w3.org/2000/svg">
<path d="M5.50629 6.75H22.7438C23.0931 6.75001 23.4385 6.82321 23.7577 6.96488C24.077 7.10655 24.363 7.31354 24.5974 7.57252C24.8317 7.83149 25.0092 8.1367 25.1184 8.46847C25.2276 8.80024 25.266 9.15121 25.2313 9.49875L24.4813 16.9988C24.4196 17.6156 24.1309 18.1876 23.6712 18.6036C23.2116 19.0196 22.6137 19.25 21.9938 19.25H10.0563C9.47813 19.2502 8.91776 19.0501 8.47059 18.6836C8.02343 18.3171 7.71711 17.8069 7.60379 17.24L5.50629 6.75Z" stroke="white" stroke-width="2" stroke-linejoin="round"/>
<path d="M19.2563 24.25H21.7563M5.50629 6.75L4.49379 2.69625C4.42607 2.42594 4.26998 2.18601 4.0503 2.01457C3.83062 1.84313 3.55995 1.75001 3.28129 1.75H1.75629L5.50629 6.75ZM9.25629 24.25H11.7563H9.25629Z" stroke="white" stroke-width="2" stroke-linecap="round" stroke-linejoin="round"/>
</svg>
