<svg width="62" height="62" viewBox="0 0 62 62" fill="none" xmlns="http://www.w3.org/2000/svg">
<path d="M59.52 0H2.48C1.10825 0 0 1.10825 0 2.48V59.52C0 60.8918 1.10825 62 2.48 62H59.52C60.8918 62 62 60.8918 62 59.52V2.48C62 1.10825 60.8918 0 59.52 0ZM57.04 57.04H42.7723V37.9905H50.8323L52.0413 28.6362H42.7723V22.661C42.7723 19.9485 43.524 18.104 47.4067 18.104H52.359V9.734C51.4987 9.61775 48.5615 9.362 45.136 9.362C37.9905 9.362 33.1003 13.7252 33.1003 21.731V28.6285H25.0247V37.9827H33.108V57.04H4.96V4.96H57.04V57.04Z" fill="black"/>
</svg>
