<svg width="102" height="98" viewBox="0 0 102 98" fill="none" xmlns="http://www.w3.org/2000/svg">
<g filter="url(#filter0_d_21_2734)">
<path d="M79.52 16H22.48C21.1082 16 20 17.1082 20 18.48V75.52C20 76.8918 21.1082 78 22.48 78H79.52C80.8918 78 82 76.8918 82 75.52V18.48C82 17.1082 80.8918 16 79.52 16ZM77.04 73.04H62.7723V53.9905H70.8323L72.0413 44.6362H62.7723V38.661C62.7723 35.9485 63.524 34.104 67.4067 34.104H72.359V25.734C71.4987 25.6178 68.5615 25.362 65.136 25.362C57.9905 25.362 53.1003 29.7252 53.1003 37.731V44.6285H45.0247V53.9827H53.108V73.04H24.96V20.96H77.04V73.04Z" fill="url(#paint0_linear_21_2734)"/>
</g>
<defs>
<filter id="filter0_d_21_2734" x="0" y="0" width="102" height="102" filterUnits="userSpaceOnUse" color-interpolation-filters="sRGB">
<feFlood flood-opacity="0" result="BackgroundImageFix"/>
<feColorMatrix in="SourceAlpha" type="matrix" values="0 0 0 0 0 0 0 0 0 0 0 0 0 0 0 0 0 0 127 0" result="hardAlpha"/>
<feOffset dy="4"/>
<feGaussianBlur stdDeviation="10"/>
<feComposite in2="hardAlpha" operator="out"/>
<feColorMatrix type="matrix" values="0 0 0 0 0 0 0 0 0 0.16 0 0 0 0 1 0 0 0 0.4 0"/>
<feBlend mode="normal" in2="BackgroundImageFix" result="effect1_dropShadow_21_2734"/>
<feBlend mode="normal" in="SourceGraphic" in2="effect1_dropShadow_21_2734" result="shape"/>
</filter>
<linearGradient id="paint0_linear_21_2734" x1="51" y1="16" x2="51" y2="78" gradientUnits="userSpaceOnUse">
<stop stop-color="#0500FF"/>
<stop offset="0.598958" stop-color="#0D0042"/>
</linearGradient>
</defs>
</svg>
