<svg width="102" height="98" viewBox="0 0 102 98" fill="none" xmlns="http://www.w3.org/2000/svg">
<g filter="url(#filter0_d_21_2729)">
<path fill-rule="evenodd" clip-rule="evenodd" d="M63.7805 16.186C60.4747 16.0338 59.4207 16 51 16C42.5793 16 41.5253 16.0366 38.2224 16.186C34.9195 16.3354 32.6649 16.8624 30.6922 17.6261C28.6265 18.4067 26.7524 19.627 25.2024 21.2052C23.6242 22.7524 22.4067 24.6236 21.6289 26.6922C20.8624 28.6649 20.3382 30.9195 20.186 34.2167C20.0338 37.5281 20 38.5821 20 47C20 55.4207 20.0366 56.4747 20.186 59.7805C20.3354 63.0777 20.8624 65.3323 21.6289 67.305C22.4067 69.3738 23.6262 71.2482 25.2024 72.7976C26.7524 74.3758 28.6265 75.5933 30.6922 76.3711C32.6649 77.1376 34.9195 77.6618 38.2167 77.814C41.5253 77.9662 42.5793 78 51 78C59.4207 78 60.4747 77.9634 63.7805 77.814C67.0777 77.6646 69.3323 77.1376 71.305 76.3711C73.3738 75.5932 75.2481 74.3737 76.7976 72.7976C78.3747 71.2495 79.5952 69.376 80.3739 67.3078C81.1376 65.3351 81.6618 63.0805 81.814 59.7833C81.9662 56.4719 82 55.4179 82 47C82 38.5793 81.9634 37.5253 81.814 34.2224C81.6646 30.9195 81.1376 28.6649 80.3739 26.6922C79.5941 24.6239 78.3727 22.7504 76.7948 21.2024C75.2475 19.6256 73.375 18.4052 71.3078 17.6261C69.3351 16.8624 67.0805 16.3382 63.7833 16.186H63.7805ZM38.4732 21.766C41.7423 21.6166 42.723 21.5856 51 21.5856C59.277 21.5856 60.2577 21.6166 63.5268 21.766C66.5507 21.9041 68.1909 22.4085 69.2844 22.8341C70.7301 23.3977 71.7644 24.0656 72.8494 25.1506C73.8779 26.1512 74.6694 27.3693 75.1659 28.7156C75.5915 29.8091 76.0959 31.4493 76.234 34.4732C76.3834 37.7423 76.4144 38.723 76.4144 47C76.4144 55.277 76.3834 56.2577 76.234 59.5268C76.0959 62.5507 75.5915 64.1909 75.1659 65.2844C74.6699 66.6286 73.878 67.8489 72.8494 68.8494C71.8489 69.878 70.6286 70.6699 69.2844 71.1659C68.1909 71.5915 66.5507 72.0959 63.5268 72.234C60.2577 72.3834 59.2798 72.4144 51 72.4144C42.7202 72.4144 41.7423 72.3834 38.4732 72.234C35.4493 72.0959 33.8091 71.5915 32.7156 71.1659C31.2699 70.6023 30.2356 69.9344 29.1506 68.8494C28.122 67.8489 27.3301 66.6286 26.8341 65.2844C26.4085 64.1909 25.9041 62.5507 25.766 59.5268C25.6166 56.2577 25.5856 55.277 25.5856 47C25.5856 38.723 25.6166 37.7423 25.766 34.4732C25.9041 31.4493 26.4085 29.8091 26.8341 28.7156C27.3977 27.2699 28.0656 26.2356 29.1506 25.1506C30.1513 24.1222 31.3694 23.3307 32.7156 22.8341C33.8091 22.4085 35.4493 21.9041 38.4732 21.766V21.766ZM54.9595 56.5565C52.7482 57.477 50.2859 57.6012 47.9932 56.9079C45.7005 56.2147 43.7195 54.7469 42.3887 52.7554C41.0579 50.7639 40.4598 48.3721 40.6966 45.9886C40.9333 43.605 41.9903 41.3777 43.6868 39.6868C44.7683 38.606 46.076 37.7784 47.5158 37.2636C48.9555 36.7488 50.4915 36.5597 52.0132 36.7097C53.5348 36.8598 55.0042 37.3454 56.3156 38.1315C57.6271 38.9177 58.7479 39.9848 59.5974 41.2561C60.4469 42.5274 61.004 43.9713 61.2285 45.4837C61.4531 46.9961 61.3395 48.5396 60.8959 50.0028C60.4524 51.4661 59.6899 52.8128 58.6634 53.946C57.6369 55.0793 56.3719 55.9708 54.9595 56.5565ZM62.2671 35.7329C60.7875 34.2533 59.0309 33.0796 57.0977 32.2788C55.1645 31.4781 53.0925 31.0659 51 31.0659C48.9075 31.0659 46.8355 31.4781 44.9023 32.2788C42.9691 33.0796 41.2125 34.2533 39.7329 35.7329C38.2533 37.2125 37.0796 38.9691 36.2788 40.9023C35.4781 42.8355 35.0659 44.9075 35.0659 47C35.0659 49.0925 35.4781 51.1645 36.2788 53.0977C37.0796 55.0309 38.2533 56.7875 39.7329 58.2671C42.7211 61.2553 46.774 62.9341 51 62.9341C55.226 62.9341 59.2789 61.2553 62.2671 58.2671C65.2553 55.2789 66.9341 51.226 66.9341 47C66.9341 42.774 65.2553 38.7211 62.2671 35.7329V35.7329ZM31.532 33.4389C31.1653 33.093 30.8718 32.6771 30.6688 32.2157C30.4658 31.7544 30.3574 31.257 30.35 30.753C30.3427 30.249 30.4365 29.7486 30.626 29.2816C30.8155 28.8145 31.0968 28.3902 31.4532 28.0337C31.8096 27.6773 32.2339 27.396 32.701 27.2065C33.1681 27.0171 33.6684 26.9232 34.1724 26.9306C34.6764 26.9379 35.1738 27.0463 35.6352 27.2493C36.0966 27.4524 36.5125 27.7459 36.8584 28.1125C37.531 28.8256 37.8993 29.7728 37.885 30.753C37.8707 31.7332 37.475 32.6692 36.7818 33.3624C36.0887 34.0555 35.1526 34.4513 34.1724 34.4656C33.1923 34.4799 32.2451 34.1116 31.532 33.4389V33.4389Z" fill="url(#paint0_linear_21_2729)"/>
</g>
<defs>
<filter id="filter0_d_21_2729" x="0" y="0" width="102" height="102" filterUnits="userSpaceOnUse" color-interpolation-filters="sRGB">
<feFlood flood-opacity="0" result="BackgroundImageFix"/>
<feColorMatrix in="SourceAlpha" type="matrix" values="0 0 0 0 0 0 0 0 0 0 0 0 0 0 0 0 0 0 127 0" result="hardAlpha"/>
<feOffset dy="4"/>
<feGaussianBlur stdDeviation="10"/>
<feComposite in2="hardAlpha" operator="out"/>
<feColorMatrix type="matrix" values="0 0 0 0 1 0 0 0 0 0 0 0 0 0 0.96 0 0 0 0.4 0"/>
<feBlend mode="normal" in2="BackgroundImageFix" result="effect1_dropShadow_21_2729"/>
<feBlend mode="normal" in="SourceGraphic" in2="effect1_dropShadow_21_2729" result="shape"/>
</filter>
<linearGradient id="paint0_linear_21_2729" x1="27" y1="21.5" x2="75.5" y2="74" gradientUnits="userSpaceOnUse">
<stop stop-color="#FA00FF"/>
<stop offset="1" stop-color="#00E0FF"/>
</linearGradient>
</defs>
</svg>
