<svg width="62" height="62" viewBox="0 0 62 62" fill="none" xmlns="http://www.w3.org/2000/svg">
<path fill-rule="evenodd" clip-rule="evenodd" d="M43.7805 0.186C40.4747 0.0338181 39.4207 0 31 0C22.5793 0 21.5253 0.0366363 18.2224 0.186C14.9195 0.335364 12.6649 0.862364 10.6922 1.62609C8.62646 2.40673 6.75237 3.627 5.20237 5.20518C3.62419 6.75236 2.40673 8.62364 1.62891 10.6922C0.862363 12.6649 0.338183 14.9195 0.186001 18.2167C0.0338196 21.5281 1.43051e-06 22.5821 1.43051e-06 31C1.43051e-06 39.4207 0.0366378 40.4747 0.186001 43.7805C0.335365 47.0777 0.862363 49.3323 1.62891 51.305C2.40675 53.3738 3.62621 55.2482 5.20237 56.7976C6.75237 58.3758 8.62646 59.5933 10.6922 60.3711C12.6649 61.1376 14.9195 61.6618 18.2167 61.814C21.5253 61.9662 22.5793 62 31 62C39.4207 62 40.4747 61.9634 43.7805 61.814C47.0777 61.6646 49.3323 61.1376 51.305 60.3711C53.3738 59.5932 55.2481 58.3737 56.7976 56.7976C58.3747 55.2495 59.5952 53.376 60.3739 51.3078C61.1376 49.3351 61.6618 47.0805 61.814 43.7833C61.9662 40.4719 62 39.4179 62 31C62 22.5793 61.9634 21.5253 61.814 18.2224C61.6646 14.9195 61.1376 12.6649 60.3739 10.6922C59.5941 8.62387 58.3727 6.75043 56.7948 5.20236C55.2475 3.62559 53.375 2.40516 51.3078 1.62609C49.3351 0.862364 47.0805 0.338182 43.7833 0.186H43.7805ZM18.4732 5.766C21.7423 5.61664 22.723 5.58564 31 5.58564C39.277 5.58564 40.2577 5.61664 43.5268 5.766C46.5507 5.90409 48.1909 6.40855 49.2844 6.83409C50.7301 7.39773 51.7644 8.06564 52.8494 9.15064C53.8779 10.1512 54.6694 11.3693 55.1659 12.7156C55.5915 13.8091 56.0959 15.4493 56.234 18.4732C56.3834 21.7423 56.4144 22.723 56.4144 31C56.4144 39.277 56.3834 40.2577 56.234 43.5268C56.0959 46.5507 55.5915 48.1909 55.1659 49.2844C54.6699 50.6286 53.878 51.8489 52.8494 52.8494C51.8489 53.878 50.6286 54.6699 49.2844 55.1659C48.1909 55.5915 46.5507 56.0959 43.5268 56.234C40.2577 56.3834 39.2798 56.4144 31 56.4144C22.7202 56.4144 21.7423 56.3834 18.4732 56.234C15.4493 56.0959 13.8091 55.5915 12.7156 55.1659C11.2699 54.6023 10.2356 53.9344 9.15064 52.8494C8.122 51.8489 7.33009 50.6286 6.83409 49.2844C6.40854 48.1909 5.90409 46.5507 5.766 43.5268C5.61664 40.2577 5.58564 39.277 5.58564 31C5.58564 22.723 5.61664 21.7423 5.766 18.4732C5.90409 15.4493 6.40854 13.8091 6.83409 12.7156C7.39773 11.2699 8.06564 10.2356 9.15064 9.15064C10.1513 8.1222 11.3694 7.33068 12.7156 6.83409C13.8091 6.40855 15.4493 5.90409 18.4732 5.766V5.766ZM34.9595 40.5565C32.7482 41.477 30.2859 41.6012 27.9932 40.9079C25.7005 40.2147 23.7195 38.7469 22.3887 36.7554C21.0579 34.7639 20.4598 32.3721 20.6966 29.9886C20.9333 27.605 21.9903 25.3777 23.6868 23.6868C24.7683 22.606 26.076 21.7784 27.5158 21.2636C28.9555 20.7488 30.4915 20.5597 32.0132 20.7097C33.5348 20.8598 35.0042 21.3454 36.3156 22.1315C37.6271 22.9177 38.7479 23.9848 39.5974 25.2561C40.4469 26.5274 41.004 27.9713 41.2285 29.4837C41.4531 30.9961 41.3395 32.5396 40.8959 34.0028C40.4524 35.4661 39.6899 36.8128 38.6634 37.946C37.6369 39.0793 36.3719 39.9708 34.9595 40.5565ZM42.2671 19.7329C40.7875 18.2533 39.0309 17.0796 37.0977 16.2788C35.1645 15.4781 33.0925 15.0659 31 15.0659C28.9075 15.0659 26.8355 15.4781 24.9023 16.2788C22.9691 17.0796 21.2125 18.2533 19.7329 19.7329C18.2533 21.2125 17.0796 22.9691 16.2788 24.9023C15.4781 26.8355 15.0659 28.9075 15.0659 31C15.0659 33.0925 15.4781 35.1645 16.2788 37.0977C17.0796 39.0309 18.2533 40.7875 19.7329 42.2671C22.7211 45.2553 26.774 46.9341 31 46.9341C35.226 46.9341 39.2789 45.2553 42.2671 42.2671C45.2553 39.2789 46.9341 35.226 46.9341 31C46.9341 26.774 45.2553 22.7211 42.2671 19.7329V19.7329ZM11.532 17.4389C11.1653 17.093 10.8718 16.6771 10.6688 16.2157C10.4658 15.7544 10.3574 15.257 10.35 14.753C10.3427 14.249 10.4365 13.7486 10.626 13.2816C10.8155 12.8145 11.0968 12.3902 11.4532 12.0337C11.8096 11.6773 12.2339 11.396 12.701 11.2065C13.1681 11.0171 13.6684 10.9232 14.1724 10.9306C14.6764 10.9379 15.1738 11.0463 15.6352 11.2493C16.0966 11.4524 16.5125 11.7459 16.8584 12.1125C17.531 12.8256 17.8993 13.7728 17.885 14.753C17.8707 15.7332 17.475 16.6692 16.7818 17.3624C16.0887 18.0555 15.1526 18.4513 14.1724 18.4656C13.1923 18.4799 12.2451 18.1116 11.532 17.4389V17.4389Z" fill="black"/>
</svg>
