<svg width="102" height="98" viewBox="0 0 102 98" fill="none" xmlns="http://www.w3.org/2000/svg">
<path d="M58.75 33.9464C57.7994 34.3598 56.7789 34.6439 55.7069 34.7679C56.8022 34.1221 57.6392 33.0991 58.037 31.8824C56.9933 32.4906 55.8544 32.9186 54.6684 33.1482C54.1695 32.6253 53.5693 32.2094 52.9044 31.9261C52.2395 31.6427 51.5239 31.4977 50.8011 31.5C47.8742 31.5 45.5027 33.8379 45.5027 36.7184C45.5027 37.1265 45.5492 37.5244 45.6396 37.9067C43.5402 37.807 41.4846 37.2708 39.604 36.3323C37.7234 35.3938 36.0591 34.0735 34.7173 32.4559C34.246 33.2492 33.9978 34.1552 33.9991 35.0779C33.9991 36.8863 34.9369 38.4879 36.3577 39.4205C35.5167 39.3942 34.6937 39.1703 33.9552 38.7669V38.8315C33.9632 40.0443 34.3913 41.2168 35.1666 42.1494C35.9419 43.0821 37.0164 43.7171 38.2074 43.9465C37.4255 44.1533 36.6075 44.1833 35.8126 44.0344C36.1591 45.0777 36.8218 45.9872 37.7088 46.6367C38.5958 47.2862 39.663 47.6434 40.7623 47.6588C38.8763 49.112 36.5608 49.8972 34.1799 49.8908C33.7537 49.8908 33.3326 49.8649 32.9167 49.8184C35.3462 51.3563 38.1633 52.1708 41.0387 52.1667C50.7882 52.1667 56.1176 44.2152 56.1176 37.3177L56.0995 36.6409C57.1388 35.9105 58.0368 34.9976 58.75 33.9464Z" fill="#00C2FF"/>
<g filter="url(#filter0_d_21_2739)">
<path d="M32.4 22.2C30.7557 22.2 29.1787 22.8532 28.0159 24.0159C26.8532 25.1787 26.2 26.7557 26.2 28.4V65.6C26.2 67.2443 26.8532 68.8213 28.0159 69.9841C29.1787 71.1468 30.7557 71.8 32.4 71.8H69.6C71.2443 71.8 72.8213 71.1468 73.9841 69.9841C75.1468 68.8213 75.8 67.2443 75.8 65.6V28.4C75.8 26.7557 75.1468 25.1787 73.9841 24.0159C72.8213 22.8532 71.2443 22.2 69.6 22.2H32.4ZM32.4 16H69.6C72.8887 16 76.0427 17.3064 78.3681 19.6319C80.6936 21.9573 82 25.1113 82 28.4V65.6C82 68.8887 80.6936 72.0427 78.3681 74.3681C76.0427 76.6936 72.8887 78 69.6 78H32.4C29.1113 78 25.9573 76.6936 23.6319 74.3681C21.3064 72.0427 20 68.8887 20 65.6V28.4C20 25.1113 21.3064 21.9573 23.6319 19.6319C25.9573 17.3064 29.1113 16 32.4 16V16Z" fill="url(#paint0_linear_21_2739)"/>
</g>
<defs>
<filter id="filter0_d_21_2739" x="0" y="0" width="102" height="102" filterUnits="userSpaceOnUse" color-interpolation-filters="sRGB">
<feFlood flood-opacity="0" result="BackgroundImageFix"/>
<feColorMatrix in="SourceAlpha" type="matrix" values="0 0 0 0 0 0 0 0 0 0 0 0 0 0 0 0 0 0 127 0" result="hardAlpha"/>
<feOffset dy="4"/>
<feGaussianBlur stdDeviation="10"/>
<feComposite in2="hardAlpha" operator="out"/>
<feColorMatrix type="matrix" values="0 0 0 0 0 0 0 0 0 0.76 0 0 0 0 1 0 0 0 0.4 0"/>
<feBlend mode="normal" in2="BackgroundImageFix" result="effect1_dropShadow_21_2739"/>
<feBlend mode="normal" in="SourceGraphic" in2="effect1_dropShadow_21_2739" result="shape"/>
</filter>
<linearGradient id="paint0_linear_21_2739" x1="26" y1="20" x2="78.5" y2="73.5" gradientUnits="userSpaceOnUse">
<stop/>
<stop offset="1" stop-color="#00D1FF"/>
</linearGradient>
</defs>
</svg>
