<svg width="62" height="62" viewBox="0 0 62 62" fill="none" xmlns="http://www.w3.org/2000/svg">
<path d="M38.75 17.9464C37.7993 18.3598 36.7789 18.6439 35.7068 18.7679C36.8021 18.1221 37.6391 17.0991 38.037 15.8824C36.9932 16.4906 35.8544 16.9186 34.6683 17.1482C34.1694 16.6253 33.5692 16.2094 32.9043 15.9261C32.2394 15.6427 31.5238 15.4977 30.801 15.5C27.8741 15.5 25.5026 17.8379 25.5026 20.7184C25.5026 21.1265 25.5491 21.5244 25.6395 21.9067C23.5401 21.807 21.4846 21.2708 19.604 20.3323C17.7234 19.3938 16.0591 18.0735 14.7172 16.4559C14.2459 17.2492 13.9978 18.1552 13.999 19.0779C13.999 20.8863 14.9368 22.4879 16.3576 23.4205C15.5166 23.3942 14.6936 23.1703 13.9551 22.7669V22.8315C13.9631 24.0443 14.3912 25.2168 15.1665 26.1494C15.9418 27.0821 17.0164 27.7171 18.2073 27.9465C17.4255 28.1533 16.6074 28.1833 15.8125 28.0344C16.159 29.0777 16.8218 29.9872 17.7088 30.6367C18.5958 31.2862 19.663 31.6434 20.7622 31.6588C18.8763 33.112 16.5608 33.8972 14.1799 33.8908C13.7536 33.8908 13.3325 33.8649 12.9166 33.8184C15.3462 35.3563 18.1633 36.1708 21.0386 36.1667C30.7881 36.1667 36.1175 28.2152 36.1175 21.3177L36.0995 20.6409C37.1387 19.9105 38.0368 18.9976 38.75 17.9464V17.9464Z" fill="black"/>
<path d="M12.4 6.2C10.7557 6.2 9.17866 6.85321 8.01594 8.01594C6.85321 9.17866 6.2 10.7557 6.2 12.4V49.6C6.2 51.2443 6.85321 52.8213 8.01594 53.9841C9.17866 55.1468 10.7557 55.8 12.4 55.8H49.6C51.2443 55.8 52.8213 55.1468 53.9841 53.9841C55.1468 52.8213 55.8 51.2443 55.8 49.6V12.4C55.8 10.7557 55.1468 9.17866 53.9841 8.01594C52.8213 6.85321 51.2443 6.2 49.6 6.2H12.4ZM12.4 0H49.6C52.8887 0 56.0427 1.30642 58.3681 3.63188C60.6936 5.95733 62 9.11132 62 12.4V49.6C62 52.8887 60.6936 56.0427 58.3681 58.3681C56.0427 60.6936 52.8887 62 49.6 62H12.4C9.11132 62 5.95733 60.6936 3.63188 58.3681C1.30642 56.0427 0 52.8887 0 49.6V12.4C0 9.11132 1.30642 5.95733 3.63188 3.63188C5.95733 1.30642 9.11132 0 12.4 0V0Z" fill="black"/>
</svg>
